<svg width="18" height="22" viewBox="0 0 18 22" fill="none" xmlns="http://www.w3.org/2000/svg">
<path d="M9.52295 11.2717V14.26L9.44482 15.7834L10.939 14.2307C11.0171 14.1526 11.105 14.0907 11.2026 14.0451C11.3068 13.9931 11.4142 13.967 11.5249 13.967C11.7397 13.967 11.9188 14.0386 12.062 14.1819C12.2118 14.3251 12.2866 14.5041 12.2866 14.719C12.2866 14.8427 12.2638 14.9501 12.2183 15.0412C12.1727 15.1324 12.1043 15.2203 12.0132 15.3049L9.31787 17.7756C9.20719 17.8798 9.09977 17.9546 8.99561 18.0002C8.89795 18.0458 8.79053 18.0686 8.67334 18.0686C8.54964 18.0686 8.43896 18.0458 8.34131 18.0002C8.24365 17.9546 8.13623 17.8798 8.01904 17.7756L5.32373 15.3049C5.23258 15.2203 5.16423 15.1324 5.11865 15.0412C5.07308 14.9501 5.05029 14.8427 5.05029 14.719C5.05029 14.5041 5.12191 14.3251 5.26514 14.1819C5.41488 14.0386 5.60042 13.967 5.82178 13.967C5.91943 13.967 6.02035 13.9931 6.12451 14.0451C6.22868 14.0907 6.31982 14.1526 6.39795 14.2307L7.89209 15.7834L7.82373 14.26V11.2717C7.82373 11.0438 7.90511 10.8518 8.06787 10.6955C8.23714 10.5328 8.43896 10.4514 8.67334 10.4514C8.9012 10.4514 9.09977 10.5328 9.26904 10.6955C9.43831 10.8518 9.52295 11.0438 9.52295 11.2717ZM3.46826 21.174C2.42008 21.174 1.62907 20.9039 1.09521 20.3635C0.561361 19.8231 0.294434 19.0256 0.294434 17.9709V3.23459C0.294434 2.18641 0.561361 1.39214 1.09521 0.851776C1.62907 0.304901 2.42008 0.0314636 3.46826 0.0314636H8.17529C8.58545 0.0314636 8.94352 0.0607605 9.24951 0.119354C9.5555 0.171438 9.8387 0.272349 10.0991 0.422089C10.3595 0.565318 10.6265 0.776906 10.8999 1.05685L16.0171 6.26193C16.3035 6.54839 16.5184 6.82508 16.6616 7.09201C16.8114 7.35243 16.9123 7.64214 16.9644 7.96115C17.0164 8.27365 17.0425 8.65777 17.0425 9.11349V17.9709C17.0425 19.0191 16.7756 19.8134 16.2417 20.3537C15.7078 20.9006 14.9168 21.174 13.8687 21.174H3.46826ZM3.62451 19.2502H13.7124C14.1877 19.2502 14.5425 19.1298 14.7769 18.8889C15.0112 18.648 15.1284 18.3029 15.1284 17.8537V9.37717H9.86475C9.16813 9.37717 8.6473 9.20464 8.30225 8.85959C7.9637 8.51454 7.79443 7.9937 7.79443 7.29709V1.94553H3.63428C3.15902 1.94553 2.8042 2.06922 2.56982 2.31662C2.33545 2.56402 2.21826 2.91232 2.21826 3.36154V17.8537C2.21826 18.3029 2.33545 18.648 2.56982 18.8889C2.8042 19.1298 3.15576 19.2502 3.62451 19.2502ZM10.0503 7.68771H14.8647L9.48389 2.2092V7.11154C9.48389 7.31336 9.5262 7.45985 9.61084 7.55099C9.70199 7.64214 9.84847 7.68771 10.0503 7.68771Z" fill="#1D1D1F"/>
</svg>
