<svg width="16" height="17" viewBox="0 0 16 17" fill="none" xmlns="http://www.w3.org/2000/svg">
<path d="M8.75555 5.57422C9.12469 5.65169 9.44371 5.76107 9.71259 5.90234C9.98602 6.04362 10.2162 6.20996 10.403 6.40137C10.9772 6.97103 11.36 7.60221 11.5515 8.29492C11.7429 8.98307 11.7429 9.6735 11.5515 10.3662C11.36 11.0544 10.9795 11.6833 10.4099 12.2529L8.0036 14.6592C7.4385 15.2243 6.81187 15.6025 6.12372 15.7939C5.43557 15.9854 4.74514 15.9854 4.05243 15.7939C3.36428 15.6071 2.73309 15.2243 2.15887 14.6455C1.58466 14.0758 1.20184 13.4447 1.01044 12.752C0.819031 12.0592 0.819031 11.3688 1.01044 10.6807C1.20184 9.99251 1.58238 9.36361 2.15204 8.79395L4.07977 6.87988C4.0023 7.17611 3.98179 7.486 4.01825 7.80957C4.05471 8.12858 4.13218 8.4248 4.25067 8.69824L3.20477 9.74414C2.82652 10.1224 2.57359 10.5371 2.44598 10.9883C2.32294 11.4395 2.32522 11.8929 2.45282 12.3486C2.58042 12.8044 2.83335 13.2214 3.21161 13.5996C3.58531 13.9779 4.00002 14.2285 4.45575 14.3516C4.91148 14.4746 5.36493 14.4723 5.8161 14.3447C6.26727 14.2217 6.68199 13.9733 7.06024 13.5996L9.35712 11.3027C9.73537 10.929 9.98602 10.5166 10.1091 10.0654C10.2321 9.6097 10.2298 9.15397 10.1022 8.69824C9.97919 8.24251 9.72854 7.82552 9.35028 7.44727C9.14976 7.2513 8.90594 7.0918 8.61884 6.96875C8.33173 6.84115 7.99904 6.75684 7.62079 6.71582L8.75555 5.57422ZM7.8327 11.4326C7.46356 11.3643 7.14227 11.2594 6.86884 11.1182C6.59996 10.9723 6.37209 10.8037 6.18524 10.6123C5.61102 10.0381 5.22821 9.4069 5.0368 8.71875C4.8454 8.02604 4.8454 7.33561 5.0368 6.64746C5.22821 5.95931 5.60874 5.3304 6.17841 4.76074L8.57782 2.36133C9.14748 1.79167 9.77639 1.41113 10.4645 1.21973C11.1527 1.02832 11.8408 1.02832 12.529 1.21973C13.2217 1.40658 13.8574 1.78939 14.4362 2.36816C15.0059 2.94238 15.3864 3.57585 15.5778 4.26855C15.7692 4.95671 15.7692 5.64486 15.5778 6.33301C15.3864 7.02116 15.0082 7.64779 14.4431 8.21289L12.5085 10.1338C12.586 9.83757 12.6065 9.52995 12.57 9.21094C12.5335 8.88737 12.4561 8.58887 12.3376 8.31543L13.3835 7.26953C13.7617 6.89583 14.0124 6.4834 14.1354 6.03223C14.2585 5.5765 14.2562 5.12305 14.1286 4.67188C14.0056 4.21615 13.7549 3.79915 13.3766 3.4209C12.9984 3.04264 12.5837 2.79199 12.1325 2.66895C11.6813 2.54134 11.2279 2.54134 10.7722 2.66895C10.321 2.79199 9.90627 3.04036 9.52802 3.41406L7.23114 5.71094C6.85288 6.08919 6.59996 6.50391 6.47235 6.95508C6.3493 7.40625 6.35158 7.8597 6.47919 8.31543C6.60679 8.7666 6.85972 9.18359 7.23798 9.56641C7.4385 9.76237 7.68231 9.92415 7.96942 10.0518C8.25653 10.1748 8.58921 10.2546 8.96747 10.291L7.8327 11.4326Z" fill="#AAAAAA"/>
</svg>
