<svg width="19" height="16" viewBox="0 0 19 16" fill="none" xmlns="http://www.w3.org/2000/svg">
<path d="M6.76599 15.1582C6.17354 15.1582 5.72921 15.0078 5.43298 14.707C5.14132 14.4108 4.99548 13.9528 4.99548 13.333L7.15564 11.4189C7.27413 11.3187 7.39718 11.2412 7.52478 11.1865C7.65238 11.1318 7.77999 11.1045 7.90759 11.1045C8.04887 11.1045 8.18559 11.1318 8.31775 11.1865C8.45447 11.2367 8.58435 11.3187 8.7074 11.4326L9.7533 12.3896L12.3988 10.0449C12.531 9.92643 12.67 9.83984 12.8158 9.78516C12.9616 9.73047 13.1143 9.70312 13.2738 9.70312C13.4288 9.70312 13.5814 9.73275 13.7318 9.79199C13.8822 9.85124 14.0189 9.93783 14.142 10.0518L17.3207 13.0254V13.3672C17.3207 13.9688 17.1726 14.4176 16.8763 14.7139C16.5801 15.0101 16.1381 15.1582 15.5502 15.1582H6.76599ZM9.32947 10.1953C8.93754 10.1953 8.6003 10.054 8.31775 9.77148C8.03975 9.48893 7.90076 9.14941 7.90076 8.75293C7.90076 8.36556 8.03975 8.03288 8.31775 7.75488C8.6003 7.47233 8.93754 7.33105 9.32947 7.33105C9.58923 7.33105 9.82621 7.39714 10.0404 7.5293C10.2592 7.6569 10.4323 7.83008 10.5599 8.04883C10.6921 8.26302 10.7582 8.49772 10.7582 8.75293C10.7582 9.14941 10.6169 9.48893 10.3344 9.77148C10.0564 10.054 9.72139 10.1953 9.32947 10.1953ZM1.40662 11.6172L0.271851 5.18457C0.139689 4.44629 0.233114 3.85156 0.552124 3.40039C0.875692 2.94466 1.40889 2.65072 2.15173 2.51855L11.3392 0.898438C12.0821 0.770833 12.6814 0.866536 13.1371 1.18555C13.5928 1.5 13.8868 2.02409 14.0189 2.75781L14.4154 5.02051H12.8773L12.5492 3.18164C12.4945 2.87174 12.3737 2.65527 12.1869 2.53223C12.0046 2.40918 11.7676 2.37272 11.476 2.42285L2.54822 3.99512C2.25199 4.04525 2.0378 4.16146 1.90564 4.34375C1.77804 4.52148 1.74158 4.76758 1.79626 5.08203L2.87634 11.2002C2.93559 11.5055 3.05636 11.722 3.23865 11.8496C3.42094 11.9727 3.65792 12.0091 3.94958 11.959L5.08435 11.7539V13.2988L4.0863 13.4766C3.33891 13.6042 2.73735 13.5107 2.28162 13.1963C1.83044 12.8773 1.53878 12.3509 1.40662 11.6172ZM6.48572 15.7734C5.72921 15.7734 5.15271 15.5775 4.75623 15.1855C4.3643 14.7982 4.16833 14.2285 4.16833 13.4766V6.94824C4.16833 6.19629 4.3643 5.62663 4.75623 5.23926C5.15271 4.84733 5.72921 4.65137 6.48572 4.65137H15.8099C16.5664 4.65137 17.1407 4.84733 17.5326 5.23926C17.9291 5.63118 18.1273 6.20085 18.1273 6.94824V13.4766C18.1273 14.2285 17.9291 14.7982 17.5326 15.1855C17.1407 15.5775 16.5664 15.7734 15.8099 15.7734H6.48572ZM6.6156 14.249H15.6801C15.9763 14.249 16.2041 14.1715 16.3636 14.0166C16.5277 13.8662 16.6097 13.6338 16.6097 13.3193V7.10547C16.6097 6.79102 16.5277 6.55632 16.3636 6.40137C16.2041 6.24642 15.9763 6.16895 15.6801 6.16895H6.6156C6.31482 6.16895 6.08468 6.24642 5.92517 6.40137C5.77022 6.55632 5.69275 6.79102 5.69275 7.10547V13.3193C5.69275 13.6338 5.77022 13.8662 5.92517 14.0166C6.08468 14.1715 6.31482 14.249 6.6156 14.249Z" fill="#666666"/>
</svg>
