<svg width="13" height="15" viewBox="0 0 13 15" fill="none" xmlns="http://www.w3.org/2000/svg">
<path d="M3.61774 6.71387C3.5038 6.71387 3.41038 6.68197 3.33746 6.61816C3.2691 6.5498 3.23492 6.45638 3.23492 6.33789C3.23492 6.26953 3.25315 6.18522 3.28961 6.08496L4.17145 3.58984C4.28082 3.27083 4.48362 3.11133 4.77985 3.11133C5.08974 3.11133 5.30166 3.27083 5.41559 3.58984L6.29742 6.08496C6.32477 6.18522 6.33844 6.26953 6.33844 6.33789C6.33844 6.45182 6.30426 6.54297 6.2359 6.61133C6.1721 6.67969 6.0764 6.71387 5.94879 6.71387C5.75283 6.71387 5.62067 6.59538 5.55231 6.3584L5.36774 5.8252H4.20563L4.03473 6.3584C3.97093 6.59538 3.83193 6.71387 3.61774 6.71387ZM4.36285 5.2168H5.21051L4.80719 3.9043H4.76617L4.36285 5.2168ZM7.50739 4.28027C7.37067 4.28027 7.26129 4.23698 7.17926 4.15039C7.09723 4.0638 7.05621 3.95898 7.05621 3.83594C7.05621 3.71289 7.09723 3.61035 7.17926 3.52832C7.26129 3.44173 7.37067 3.39844 7.50739 3.39844H9.31207C9.43968 3.39844 9.54449 3.44173 9.62653 3.52832C9.71311 3.61035 9.75641 3.71289 9.75641 3.83594C9.75641 3.95898 9.71311 4.0638 9.62653 4.15039C9.54449 4.23698 9.43968 4.28027 9.31207 4.28027H7.50739ZM7.50739 6.50879C7.37067 6.50879 7.26129 6.46549 7.17926 6.37891C7.09723 6.29232 7.05621 6.18522 7.05621 6.05762C7.05621 5.93913 7.09723 5.83887 7.17926 5.75684C7.26129 5.67025 7.37067 5.62695 7.50739 5.62695H9.31207C9.43968 5.62695 9.54449 5.67025 9.62653 5.75684C9.71311 5.83887 9.75641 5.93913 9.75641 6.05762C9.75641 6.18522 9.71311 6.29232 9.62653 6.37891C9.54449 6.46549 9.43968 6.50879 9.31207 6.50879H7.50739ZM3.23492 11.8203V8.70312C3.23492 8.42057 3.3124 8.20638 3.46735 8.06055C3.62229 7.91471 3.83877 7.8418 4.11676 7.8418H8.90192C9.48069 7.8418 9.77008 8.12891 9.77008 8.70312V11.752H9.29156L8.02692 10.2891C7.96767 10.2253 7.89931 10.1797 7.82184 10.1523C7.74892 10.1204 7.67145 10.1045 7.58942 10.1045C7.43447 10.1045 7.28636 10.166 7.14508 10.2891L5.83258 11.458L5.30621 10.9727C5.18772 10.8678 5.06012 10.8154 4.9234 10.8154C4.78212 10.8154 4.6568 10.8678 4.54742 10.9727L3.71344 11.8203H3.23492ZM5.3609 10.2959C5.54775 10.2959 5.70953 10.2275 5.84625 10.0908C5.98297 9.94954 6.05133 9.78548 6.05133 9.59863C6.05133 9.41178 5.98297 9.25228 5.84625 9.12012C5.70953 8.9834 5.54775 8.91276 5.3609 8.9082C5.16949 8.90365 5.00543 8.97201 4.86871 9.11328C4.73199 9.25 4.66591 9.41178 4.67047 9.59863C4.67047 9.78548 4.73655 9.94954 4.86871 10.0908C5.00543 10.2275 5.16949 10.2959 5.3609 10.2959ZM0.555237 12.6953V2.4209C0.555237 1.66895 0.748922 1.09473 1.13629 0.698242C1.52822 0.301758 2.10016 0.103516 2.85211 0.103516H10.1529C10.9003 0.103516 11.47 0.301758 11.8619 0.698242C12.2538 1.09473 12.4498 1.66895 12.4498 2.4209V12.6953C12.4498 13.4518 12.2538 14.026 11.8619 14.418C11.47 14.8099 10.9003 15.0059 10.1529 15.0059H2.85211C2.10016 15.0059 1.52822 14.8099 1.13629 14.418C0.748922 14.026 0.555237 13.4518 0.555237 12.6953ZM2.07281 12.5654C2.07281 12.8662 2.15029 13.0941 2.30524 13.249C2.46018 13.4085 2.69489 13.4883 3.00934 13.4883H9.99567C10.3101 13.4883 10.5425 13.4085 10.6929 13.249C10.8479 13.0941 10.9254 12.8662 10.9254 12.5654V2.55078C10.9254 2.25456 10.8479 2.02669 10.6929 1.86719C10.5425 1.70768 10.3101 1.62793 9.99567 1.62793H3.00934C2.69489 1.62793 2.46018 1.70768 2.30524 1.86719C2.15029 2.02669 2.07281 2.25456 2.07281 2.55078V12.5654Z" fill="#666666"/>
</svg>
