<svg width="11" height="18" viewBox="0 0 11 18" fill="none" xmlns="http://www.w3.org/2000/svg">
<path d="M10.6592 8.94922C10.6592 9.11849 10.6266 9.27474 10.5615 9.41797C10.4964 9.5612 10.3988 9.69792 10.2686 9.82812L2.66113 17.2695C2.44629 17.4909 2.17936 17.6016 1.86035 17.6016C1.65202 17.6016 1.45996 17.5495 1.28418 17.4453C1.1084 17.3477 0.968424 17.2109 0.864258 17.0352C0.766602 16.8659 0.717773 16.6771 0.717773 16.4688C0.717773 16.1562 0.834961 15.8796 1.06934 15.6387L7.9248 8.94922L1.06934 2.25977C0.834961 2.01888 0.717773 1.74544 0.717773 1.43945C0.717773 1.22461 0.766602 1.03255 0.864258 0.863281C0.968424 0.69401 1.1084 0.560547 1.28418 0.462891C1.45996 0.358724 1.65202 0.306641 1.86035 0.306641C2.17936 0.306641 2.44629 0.414062 2.66113 0.628906L10.2686 8.07031C10.3988 8.20052 10.4964 8.33724 10.5615 8.48047C10.6266 8.6237 10.6592 8.77995 10.6592 8.94922Z" fill="#F5F5F7"/>
</svg>
