<svg width="12" height="12" viewBox="0 0 12 12" fill="none" xmlns="http://www.w3.org/2000/svg">
<path d="M0.833862 11.1282C0.665243 10.9641 0.574097 10.7704 0.560425 10.5471C0.546753 10.3238 0.640177 10.1119 0.840698 9.91138L7.25964 3.47876L8.76355 2.0979C8.94584 1.92472 9.13953 1.84269 9.3446 1.85181C9.55424 1.86092 9.73197 1.94067 9.87781 2.09106C10.0191 2.23234 10.092 2.40552 10.0966 2.6106C10.1057 2.81112 10.0236 3.00252 9.85046 3.18481L8.4696 4.68188L2.03699 11.1077C1.84558 11.2945 1.6405 11.3857 1.42175 11.3811C1.203 11.3811 1.00704 11.2968 0.833862 11.1282ZM9.35828 6.12427L9.52234 2.44653L5.72839 2.59009H3.25378C3.01681 2.59009 2.81173 2.51034 2.63855 2.35083C2.46993 2.19132 2.38562 1.99764 2.38562 1.76978C2.38562 1.54191 2.46765 1.34595 2.63171 1.18188C2.80033 1.01782 3.01225 0.935791 3.26746 0.935791H10.1239C10.3973 0.935791 10.6161 1.0201 10.7802 1.18872C10.9442 1.35278 11.0262 1.56698 11.0262 1.8313V8.68091C11.0262 8.93156 10.9419 9.14347 10.7733 9.31665C10.6093 9.48527 10.4133 9.56958 10.1854 9.56958C9.953 9.56958 9.75704 9.48527 9.59753 9.31665C9.43803 9.14347 9.35828 8.9384 9.35828 8.70142V6.12427Z" fill="#666666"/>
</svg>
